<?xml version="1.0" encoding="utf-8"?>
<!-- Generator: Adobe Illustrator 26.5.2, SVG Export Plug-In . SVG Version: 6.00 Build 0)  -->
<svg version="1.1" xmlns="http://www.w3.org/2000/svg" xmlns:xlink="http://www.w3.org/1999/xlink" x="0px" y="0px"
	 viewBox="0 0 1028 599" style="enable-background:new 0 0 1028 599;" xml:space="preserve">
<style type="text/css">
	.st0{opacity:0.1;enable-background:new    ;}
	.st1{fill:#F2F2F2;}
	.st2{fill:#B7B7BB;}
	.st3{fill:#FFFFFF;}
	.st4{fill:#8A8B8C;}
	.st5{fill:#2F2E41;}
	.st6{fill:#A0616A;}
	.st7{fill:#999999;}
	.st8{fill:#191919;}
	.st9{fill:#D0CDE1;}
	.st10{fill:#333333;}
	.st11{fill:#E2E2E2;}
	.st12{fill:#FFB9B9;}
	.st13{opacity:5.000000e-02;enable-background:new    ;}
</style>
<g id="Layer_2">
	<circle class="st0" cx="580.3" cy="292" r="215.1"/>
</g>
<g id="Layer_1">
	<circle class="st1" cx="332" cy="292" r="292"/>
	<path class="st2" d="M1028,518c0,0.7-0.1,1.4-0.2,2.1C1020.7,563.9,793.4,599,514,599S7.3,563.9,0.2,520.1C0.1,519.4,0,518.7,0,518
		c0-0.2,0-0.4,0-0.6c0-0.1,0-0.2,0-0.3c0,0,0-0.1,0-0.1c0-0.5,0.1-0.9,0.2-1.3c3.3-17.9,43.3-34.3,108.7-47.5
		c53.5-10.8,123.9-19.4,204.9-24.8C375.4,439.3,443,437,514,437c57.1,0,112.1,1.5,163.4,4.2h0c10.7,0.6,21.3,1.2,31.7,1.9
		c71.3,4.6,134.6,11.7,185.6,20.5c31.4,5.5,58.1,11.6,79.2,18.2h0c32.5,10.2,51.6,21.7,53.8,33.8c0.1,0.4,0.1,0.9,0.2,1.3
		c0,0,0,0.1,0,0.1c0,0.1,0,0.2,0,0.3C1028,517.6,1028,517.8,1028,518z"/>
	<ellipse class="st0" cx="501" cy="572" rx="165" ry="24"/>
	<path class="st0" d="M974,481.8c-5.8,1.7-12.3,3.2-19.4,4.6c-29.4,5.8-69.4,9.3-113.5,9.3c-49.3,0-93.5-4.4-123.4-11.4
		c-24.8-5.8-39.9-13.4-39.9-21.7c0-7.3,11.6-14.1,31.4-19.5c71.3,4.6,134.6,11.7,185.6,20.5C926.1,469,952.9,475.2,974,481.8z"/>
	<path class="st0" d="M532,470.7c0,15.1-94.9,27.4-212,27.4s-212-12.3-212-27.4c0-1,0.4-1.9,1-2.6c53.5-10.8,123.9-19.4,204.9-24.8
		c2,0,4.1,0,6.1,0C437.1,443.4,532,455.6,532,470.7z"/>
	<rect x="416.5" y="335" class="st3" width="41.7" height="134.6"/>
	<rect x="279.5" y="271.9" class="st3" width="41.7" height="197.7"/>
	<rect x="143.7" y="271.9" class="st3" width="41.7" height="197.7"/>
	<rect x="211.6" y="271.9" class="st3" width="41.7" height="134.6"/>
	<rect x="347.4" y="271.9" class="st3" width="41.7" height="39.3"/>
	<rect x="347.4" y="335" class="st4" width="41.7" height="134.6"/>
	<rect x="416.5" y="271.9" class="st3" width="109.6" height="39.3"/>
	<path class="st0" d="M753.4,510.3c0,48.7-67.9,33.7-151.1,33.7s-150.1,15.1-150.1-33.7S520.1,451,603.3,451
		S753.4,461.6,753.4,510.3z"/>
	<path class="st4" d="M753.4,498.3c0,48.7-67.9,33.7-151.1,33.7s-150.1,15.1-150.1-33.7S520.1,439,603.3,439
		S753.4,449.6,753.4,498.3z"/>
	<path class="st5" d="M739.5,410.8L743,425c0,0.2,0,0.3,0,0.5l-15.6,48.7c-0.1,0.5-0.6,0.7-1.1,0.6c-0.3-0.1-0.6-0.4-0.6-0.7
		l-2.2-19c0-0.1,0-0.3,0-0.4l14.3-43.9c0.2-0.5,0.7-0.7,1.1-0.6C739.2,410.3,739.5,410.5,739.5,410.8z"/>
	<polygon class="st1" points="738.3,412 741.4,424.2 727.7,468.6 724.5,454.8 	"/>
	<path class="st5" d="M669.1,478.1c0.5,1.6,54.9-0.5,55.5-1.1c0.5-0.7,0.9-1.4,1.2-2.1c0.5-1.1,1-2.1,1-2.1l-2.1-17.1l-53.9-1.9
		c0,0-1.3,14.5-1.6,21.1C668.9,476,668.9,477,669.1,478.1z"/>
	<polygon class="st0" points="717.7,458 718.7,472.8 695,472.8 695,458 	"/>
	<polygon class="st0" points="687,462.8 687.2,462.7 686.5,469.1 673.3,469.1 673.3,462.8 	"/>
	<path class="st0" d="M669.1,478.1c0.5,1.6,54.9-0.5,55.5-1.1c0.5-0.7,0.9-1.4,1.2-2.1H669C668.9,476,668.9,477,669.1,478.1z"/>
	<path class="st5" d="M585.1,422.6h14.8l36.5-14.3c0,0,25.9-10.6,23.8,9.5s-5.8,47-5.8,47s-11.6-5.3-18-3.7s-2.1-32.2-2.1-32.2
		s-51.8,24.8-56.5,21.7s-5.8-25.4-5.8-25.4L585.1,422.6z"/>
	<path d="M585.1,422.6h14.8l36.5-14.3c0,0,25.9-10.6,23.8,9.5s-5.8,47-5.8,47s-11.6-5.3-18-3.7s-2.1-32.2-2.1-32.2
		s-51.8,24.8-56.5,21.7s-5.8-25.4-5.8-25.4L585.1,422.6z"/>
	<path class="st6" d="M608.4,376.3l17.9,25.7l41.7,34.9c0,0,38.6,9,33.3,15.3s-37.5-6.3-37.5-6.3s-48.1-34.9-49.7-37.5
		s-19-27.5-19-27.5L608.4,376.3z"/>
	<path class="st0" d="M608.4,376.3l17.9,25.7l41.7,34.9c0,0,38.6,9,33.3,15.3s-37.5-6.3-37.5-6.3s-48.1-34.9-49.7-37.5
		s-19-27.5-19-27.5L608.4,376.3z"/>
	<circle class="st6" cx="605.7" cy="324.3" r="23.8"/>
	<path class="st6" d="M604.1,345.5c0,0-7.9,13.7-9.5,21.1s-23.8-14.8-23.8-14.8l-2.9-7.7c0,0,20.9-9.8,19.3-17.7
		S604.1,345.5,604.1,345.5z"/>
	<path class="st7" d="M597.7,355.5l11.6,22.7c0,0-2.6,11.1-6.9,12.2s-22.2-13.7-22.2-13.7L597.7,355.5z"/>
	<path class="st6" d="M608.3,386.7l21.7,28.5l51.8,38.6c0,0,37.5,7.9,29.1,13.7s-32.8-5.3-32.8-5.3s-52.3-28-63.4-39.6
		s-31.7-31.2-31.7-31.2L608.3,386.7z"/>
	<path class="st8" d="M579.2,431.1l6.3,10l37.8-11.9c8.3-2.7,17.4-1.6,24.8,3c6.6,4.2,10.8,10.8,1.3,20.5c-19,19.5-31.7,9-31.7,9
		s-63.9,30.1-74.5,15.3s-11.1-22.2-11.1-22.2S572.9,429.5,579.2,431.1z"/>
	<path class="st9" d="M658.5,465.9c0,0,16.9,11.1-3.2,16.4s-34.9-2.1-34.9-2.1s-17.4,0-17.4-9s5.8-10,5.8-10l18,2.6
		C626.8,463.8,648.5,458,658.5,465.9z"/>
	<path class="st10" d="M625.2,318.4c1.6,0.8,3.2,1.4,5,1.8c1.8,0.3,3.6-0.5,4.6-2c0.4-0.9,0.6-1.8,0.5-2.8c0.1-2.9-0.1-6-2-8.3
		c-1.2-1.4-2.9-2.3-4.1-3.7c-0.8-1-1.5-2.2-2.1-3.4c-2.4-4.4-5.8-8.7-10.7-10c-2-0.4-4.1-0.6-6.2-0.5l-12.2,0.2
		c-2-0.1-4,0.1-5.9,0.6c-3.9,1.2-6.8,4.5-9.4,7.7c-2,2.3-3.8,4.8-5.4,7.4c-2.1,3.9-3.2,8.3-3.1,12.8c0,1.1,0.1,2.3,0.4,3.4
		c0.4,1,0.8,2,1.3,2.9c2.3,4.5,3.6,10.1,1.1,14.4c4.5-1.8,8.9-4.2,11.9-8.1c1.3-1.7,2.4-3.7,4.1-5s4.6-1.4,5.8,0.5
		c0.4,0.7,0.6,1.6,0.6,2.4c0,1.4,0.2,2.8,0.7,4.1c0.5,1.3,1.9,2.1,3.3,1.9c2.3-0.6,2.1-4.2,3.9-5.8c1.3-1.2,3.4-1,5.2-1.5
		c2-0.8,3.6-2.3,4.4-4.3c0.7-1.5,0.6-5.3,1.9-6.1C620.2,316.1,623.7,317.7,625.2,318.4z"/>
	<path class="st11" d="M566,341.6c1.1-0.3,2.2-0.3,3.3,0c3.4,0.9,11,3.3,12.6,7c2.1,4.8,9.5,12.2,9.5,12.2s10,10,7.9,16.9
		s-10,14.8-10,14.8s2.1,32.8-8.5,41.2s-14.8,2.6-14.8,10.6s-32.8,32.8-39.1,17.4c0,0,3.2-28.5,2.1-38.6
		C528,413.2,529.5,351.5,566,341.6z"/>
	<path class="st11" d="M582.9,355c0,0,32.2,23.8,26.4,33.8c0,0-19.5,9.5-23.8,9s-20.6-19-24.8-20.6S554.4,347.1,582.9,355z"/>
	<path class="st10" d="M493.8,376.3c-5,1.7-9.6,5.7-10.6,10.8c-0.5,2.4-0.2,4.9-0.6,7.3c-0.9,5.6-5.3,9.9-9.4,13.9
		s-8.3,8.6-8.6,14.3c-0.3,6.2,4.2,12,3.4,18.2c-0.9,7.2-8.5,11.8-10.4,18.8c-1.3,4.7,0.3,9.7,2.8,13.8c4.8,7.9,13,13.2,21.8,16
		s18.1,3.5,27.3,3.6c11.2,0.1,23.4-0.8,31.8-8.2c4.8-4.3,7.8-10.2,8.5-16.6c0.8-8.6-2.8-17.4-0.3-25.7c1.6-5.2,5.4-9.9,4.9-15.3
		c-0.6-5.3-5.2-9-8.3-13.3c-2.9-4-4.7-8.7-6.5-13.3l-6-15.8c-1.2-3.1-2.5-6.4-5.1-8.4c-4.9-3.8-12.8-3.1-18.6-2.3
		C504.6,374.9,498.9,374.5,493.8,376.3z"/>
	<path class="st12" d="M495.7,422.4c0,0,2.7,8.6-17.3,18.6s2,20.6,2,20.6l23.3,5.3c0,0,23.9-3.3,26.6-7.3s7.3-17.3,6-19.3
		c-1-1.4-2.1-2.8-3.3-4c0,0-15.9-2.7-15.3-10S495.7,422.4,495.7,422.4z"/>
	<path class="st0" d="M495.7,422.4c0,0,2.7,8.6-17.3,18.6s2,20.6,2,20.6l23.3,5.3c0,0,23.9-3.3,26.6-7.3s7.3-17.3,6-19.3
		c-1-1.4-2.1-2.8-3.3-4c0,0-15.9-2.7-15.3-10S495.7,422.4,495.7,422.4z"/>
	
		<ellipse transform="matrix(0.1602 -0.9871 0.9871 0.1602 17.7871 850.3781)" class="st12" cx="508.6" cy="414.7" rx="21.3" ry="21.3"/>
	<path class="st10" d="M506.3,459.6c0,0-25.6-1.9-26.1-19.5c0,0-9.1-1.1-11.8,1.6s-11.3,4.7-11.3,11.3s14.6,26.6,14.6,26.6
		s8,26.6,4.7,31.2c-3.3,4.7-4,16.6-4,16.6s33.2-2.7,38.5,0s26.6,2.7,27.9,0s-1.3-35.9-1.3-35.9s6-8,4.7-17.3l15.9-18.6
		c0,0-6-17.9-15.3-17.9c0,0-12.6-3.3-13-1.7S536.2,456.3,506.3,459.6z"/>
	<path class="st12" d="M446.5,518c0,0,6,9.3,21.3,11.3s17.9-3.3,16.6-4.7s-17.3-7.3-17.3-7.3l-9.3-7.3L446.5,518z"/>
	<path class="st12" d="M555.5,510.1l-17.3,10c0,0-22.6-1.3-14,5.3s24.6,4,24.6,4l15.3-7.3L555.5,510.1z"/>
	<path class="st5" d="M469.1,527.3c0,0-15.9,39.2,3.3,45.2s72.4,4.7,84.4-3.3s15.3-18.6,13.3-21.9s-15.3-12.6-24.6-13.3
		S469.1,527.3,469.1,527.3z"/>
	<path class="st13" d="M469.1,527.3c0,0-15.9,39.2,3.3,45.2s72.4,4.7,84.4-3.3s15.3-18.6,13.3-21.9s-15.3-12.6-24.6-13.3
		S469.1,527.3,469.1,527.3z"/>
	<path class="st5" d="M544.4,529.8c0,0,56.3-20.4,55.6,4.2c-0.7,24.6-35.9,31.2-35.9,31.2l-10.6,1.3l-58.5,2c0,0,2-10.6-2.7-12
		c0,0,15.3-4,15.9-4.7s38.5-14,41.2-14.6s10.6-6,16.6-5.3c0,0,6.6-5.3,14-4l-20.6,1.3L544.4,529.8z"/>
	<path class="st0" d="M544.4,529.8c0,0,56.3-20.4,55.6,4.2c-0.7,24.6-35.9,31.2-35.9,31.2l-10.6,1.3l-58.5,2c0,0,2-10.6-2.7-12
		c0,0,15.3-4,15.9-4.7s38.5-14,41.2-14.6s10.6-6,16.6-5.3c0,0,6.6-5.3,14-4l-20.6,1.3L544.4,529.8z"/>
	<polygon class="st5" points="534.4,533.1 541.5,549.3 584.7,534 588,525.4 576.7,523.4 554,527.3 544.2,530 	"/>
	<polygon class="st0" points="534.4,533.1 541.5,549.3 584.7,534 588,525.4 576.7,523.4 554,527.3 544.2,530 	"/>
	<path class="st5" d="M442.5,552.6c0,0,12.6,15.9,27.2,19.9s22.6-1.3,22.6-1.3l-4.7-18.6l-2-12l-8.6-6l-17.3-8l-20.6-6.6
		c0,0-8.6-1.3-8.6,0s8,21.3,8,21.3L442.5,552.6z"/>
	<path class="st1" d="M457.8,561.2c0,0,2.7,19.3,6,20.6s13.3-1.3,15.9-2.7s11.7-7.5,11.7-7.5S459.8,559.9,457.8,561.2z"/>
	<polygon class="st12" points="518.3,563.2 530.9,565.2 529.6,580.5 512,576.2 	"/>
	<path class="st1" d="M526.2,567.5c0,0-5.9,7,0.1,11l4,3.3c0,0,13.3,2.7,14.6,4s6.6-2,6.6-2s0.7-19.9,0-21.3s-8.6-2.7-9.3-1.3
		s-8.6,3.3-13.3,2L526.2,567.5z"/>
	<path class="st5" d="M473.1,532c0,0-46.5-27.2-53.8-17.3c-7.3,10-15.3,23.9,6,34.5c21.3,10.6,87.7,32.6,87.7,32.6s10-15.3,10-19.3
		c0,0-35.2-15.9-41.2-17.3s-29.9-16.6-33.2-17.9s-8-5.3-8-5.3L473.1,532z"/>
	<path class="st10" d="M459.8,449.6l-2.7,2c0,0-6,15.3-6.6,23.9s-8.6,35.2-8,38.5c0.7,3.3,1.3,6,5.3,9.3c0,0,5.3-12,14.6-10
		l11.3-41.2L459.8,449.6z"/>
	<path class="st10" d="M552.8,449.6l5.3,6c0,0,3.3,8,3.3,10s6.6,31.2,7.3,32.6s3.3,17.9,0,21.9s-9.3,6.6-9.3,6.6s4-14-8.6-14.6
		l1.3-5.3l-12-39.9L552.8,449.6z"/>
	<path class="st2" d="M461.1,495.4v35c0,4.6,3.7,8.3,8.3,8.4l73.2,1.1c4.6,0.1,8.4-3.5,8.5-8.1l1.3-35c0.2-4.6-3.4-8.6-8.1-8.7
		c-0.1,0-0.1,0-0.2,0l-74.5-1.1c-4.6-0.1-8.5,3.6-8.5,8.3C461.1,495.3,461.1,495.3,461.1,495.4z"/>
	<ellipse class="st10" cx="509.9" cy="401.7" rx="22.9" ry="12.3"/>
	<circle class="st1" cx="506" cy="513.7" r="5.3"/>
</g>
</svg>
